<?xml version="1.0" encoding="utf-8"?>
<!-- Generator: Adobe Illustrator 27.5.0, SVG Export Plug-In . SVG Version: 6.00 Build 0)  -->
<svg version="1.1" xmlns="http://www.w3.org/2000/svg" xmlns:xlink="http://www.w3.org/1999/xlink" x="0px" y="0px"
	 viewBox="0 0 500 500" style="enable-background:new 0 0 500 500;" xml:space="preserve">
<g id="BACKGROUND">
	<rect style="fill:#D2CCFF;" width="500" height="500"/>
</g>
<g id="OBJECTS">
	<g>
		<path style="fill:#FFFFFF;" d="M457.172,370.323c-4.081-10.227-10.355-19.343-18.245-26.763c0.893-4.483,1.369-9.117,1.369-13.863
			c0-38.979-31.599-70.578-70.578-70.578c-2.169,0-4.311,0.113-6.43,0.305c-10.991-19.618-30.709-33.672-53.904-36.909
			c-2.564-25.951-24.451-46.223-51.076-46.223c-27.417,0-49.81,21.496-51.253,48.553c-7.882-3.457-16.584-5.389-25.742-5.389
			c-35.065,0-63.541,28.132-64.134,63.055c-0.783-0.038-1.569-0.06-2.361-0.06c-26.416,0-47.83,21.414-47.83,47.83
			c0,4.724,0.696,9.284,1.972,13.594c-10.868,5.414-19.556,14.531-24.445,25.692c-13.206,5.529-22.485,18.571-22.485,33.784
			c0,20.22,16.392,36.612,36.612,36.612h382.713c20.22,0,36.612-16.392,36.612-36.612
			C477.968,388.795,469.474,376.225,457.172,370.323z"/>
		<path style="fill:#D2CCFF;" d="M479.039,433.681H20.961c-2.725,0-4.934,2.209-4.934,4.934c0,2.725,2.209,4.934,4.934,4.934
			h458.077c2.725,0,4.934-2.209,4.934-4.934C483.973,435.89,481.764,433.681,479.039,433.681z"/>
		<g>
			<g>
				<g>
					<g>
						<rect x="164.456" y="431.204" style="fill:#4678AE;" width="120.393" height="7.32"/>
						<path style="fill:#73ABF9;" d="M224.652,246.507l-92.036-3.321L147.3,416.833c0.818,9.669,8.904,17.101,18.608,17.101h58.744
							h58.744c9.704,0,17.791-7.432,18.608-17.101l14.684-173.647L224.652,246.507z"/>
						<path style="fill:#5C96DE;" d="M262.088,376.642c-18.429,30.881-92.066,34.99-115.183,35.514l0.396,4.677
							c0.818,9.669,8.904,17.101,18.608,17.101h58.744h58.744c9.704,0,17.79-7.432,18.608-17.101l14.684-173.647l-35.521,1.282
							C280.864,279.968,278.145,349.736,262.088,376.642z"/>
					</g>
					<path style="fill:#4678AE;" d="M316.689,243.186l-92.036,3.321l-92.036-3.321l2.126,25.144h75.455v0.262
						c0,3.833,3.107,6.939,6.939,6.939h15.032c3.832,0,6.939-3.107,6.939-6.939v-0.262h75.455L316.689,243.186z"/>
				</g>
				<g>
					<path style="fill:#73ABF9;" d="M329.023,243.186c0-6.026-4.885-10.911-10.911-10.911H131.193
						c-6.026,0-10.911,4.885-10.911,10.911v10.911h89.916v10.784c0,3.832,3.107,6.939,6.939,6.939h15.032
						c3.833,0,6.939-3.107,6.939-6.939v-10.784h89.916V243.186z"/>
					<path style="fill:#4678AE;" d="M308.636,338.408l-81.457-76.318c-1.491-1.396-3.83-1.32-5.224,0.17
						c-1.396,1.49-1.32,3.829,0.17,5.225l85.718,80.31L308.636,338.408z"/>
					<g>
						<path style="fill:#A7D1F1;" d="M199.975,237.531h-64.532c-1.562,0-2.828,1.266-2.828,2.828c0,1.562,1.266,2.828,2.828,2.828
							h64.532c1.562,0,2.828-1.266,2.828-2.828C202.803,238.797,201.537,237.531,199.975,237.531z"/>
						<path style="fill:#A7D1F1;" d="M218.001,237.531h-8.836c-1.562,0-2.828,1.266-2.828,2.828c0,1.562,1.266,2.828,2.828,2.828
							h8.836c1.562,0,2.828-1.266,2.828-2.828C220.829,238.797,219.563,237.531,218.001,237.531z"/>
					</g>
				</g>
				<path style="fill:#4678AE;" d="M231.185,261.09c0,3.608-2.925,6.533-6.533,6.533s-6.532-2.925-6.532-6.533
					c0-3.608,2.925-6.532,6.532-6.532S231.185,257.483,231.185,261.09z"/>
				<g>
					<path style="fill:#73ABF9;" d="M316.688,351.017c-0.905,0-1.813-0.331-2.526-0.999l-92.036-86.23
						c-1.49-1.396-1.566-3.735-0.17-5.224c1.395-1.49,3.734-1.567,5.224-0.17l92.036,86.23c1.49,1.396,1.566,3.735,0.17,5.225
						C318.659,350.624,317.674,351.017,316.688,351.017z"/>
				</g>
				<path style="fill:#5C96DE;" d="M319.157,348.548c-0.906,0-1.813-0.331-2.526-0.999l-92.036-86.23
					c-1.058-0.991-1.388-2.454-1-3.754c-0.606,0.181-1.177,0.505-1.64,0.999c-1.396,1.49-1.32,3.829,0.17,5.224l92.036,86.23
					c0.713,0.668,1.621,0.999,2.526,0.999c0.986,0,1.971-0.393,2.698-1.169c0.406-0.433,0.672-0.941,0.831-1.474
					C319.87,348.478,319.516,348.548,319.157,348.548z"/>
			</g>
			<g>
				<g>
					<path style="fill:#28466E;" d="M106.611,412.118c0,0-3.991,11.467-13.704,22.028c4.396,0.599,9.947,1.279,16.441,1.922
						c3.78-7.155,10.395-21.097,12.7-34.897c0,0-2.767,19.663-8.544,35.292c5.346,0.484,11.238,0.93,17.575,1.283l5.31-30.233
						l-0.743,30.466c6.01,0.281,12.377,0.471,19.026,0.528l1.774-37.336l2.091,37.354c6.602,0.005,13.455-0.125,20.497-0.431
						c-2.83-7.053-7.66-20.826-9.68-36.923c0,0,4.771,24.232,15.225,36.644c15.09-0.849,30.918-2.528,46.82-5.429
						c0,0-25.189-30.64-28.706-52.994h-88.509c0,0-9.568,30.884-32.692,52.994c0,0,2.309,0.429,6.512,1.06
						C94.047,428.4,102.677,420.261,106.611,412.118z"/>
					<path style="fill:#243E5A;" d="M231.4,432.385c0,0-25.189-30.64-28.706-52.994h-88.509c0,0-1.403,4.524-4.428,11.345
						c18.825-1.529,49.234-1.866,63.674,9.645c12.33,9.828,15.927,25.289,17.004,37.063
						C203.743,436.513,217.543,434.913,231.4,432.385z"/>
				</g>
				<g>
					<g>
						<rect x="152.583" y="91.466" style="fill:#F0CC30;" width="12.852" height="289.211"/>
						<rect x="159.981" y="91.466" style="fill:#DFBD2C;" width="5.454" height="289.211"/>
					</g>
					<g>
						<path style="fill:#DD5515;" d="M159.009,64.719c-4.243,0-7.683,3.44-7.683,7.683v126.489h15.365V72.402
							C166.692,68.159,163.252,64.719,159.009,64.719z M162.082,79.792c0,1.697-1.376,3.073-3.073,3.073
							c-1.697,0-3.073-1.376-3.073-3.073v-6.704c0-1.697,1.376-3.073,3.073-3.073c1.697,0,3.073,1.376,3.073,3.073V79.792z"/>
						<g>
							<g>
								<g>
									<path style="fill:#C54310;" d="M159.009,64.719c-0.69,0-1.356,0.1-1.992,0.27c3.276,0.878,5.691,3.86,5.691,7.412v126.489
										h3.984V72.402C166.692,68.159,163.252,64.719,159.009,64.719z"/>
								</g>
							</g>
						</g>
					</g>
				</g>
				<g>
					<g>
						<path style="fill:#DD5515;" d="M168.919,340.434h-20.406v-13.94c0-1.206,0.977-2.183,2.183-2.183h16.04
							c1.206,0,2.183,0.977,2.183,2.183V340.434z"/>
						<path style="fill:#D14916;" d="M166.792,324.31h-3.264v16.123h5.391v-13.996C168.919,325.263,167.967,324.31,166.792,324.31z"
							/>
					</g>
					<path style="fill:#DD5515;" d="M169.307,337.354h-21.18c-19.814,0-35.876,16.062-35.876,35.876v8.159h92.933v-8.159
						C205.183,353.417,189.121,337.354,169.307,337.354z"/>
					<path style="fill:#D14916;" d="M183.869,340.444c0.088,0.226,8.553,22.019-1.808,28.353c-6.999,4.28-45.359,3.558-69.766,2.624
						c-0.03,0.599-0.046,1.202-0.046,1.809v8.159h92.933v-8.159C205.183,358.603,196.424,346.029,183.869,340.444z"/>
					<g>
						<g>
							<g>
								<path style="fill:#C54310;" d="M164.409,372.539h31.915c-0.368-14.584-12.346-26.335-27.017-26.335h-4.898V372.539z"/>
							</g>
							<g>
								<path style="fill:#C54310;" d="M153.024,346.205h-4.898c-14.671,0-26.65,11.75-27.017,26.335h31.915V346.205z"/>
							</g>
						</g>
					</g>
					<g>
						<g>
							<g>
								<path style="fill:#AF380D;" d="M167.727,349.364c13.594,0,24.87,10.092,26.745,23.176h1.852
									c-0.368-14.584-12.346-26.335-27.017-26.335h-4.898v3.159H167.727z"/>
							</g>
							<g>
								<path style="fill:#AF380D;" d="M148.126,346.205c-11.2,0-20.824,6.851-24.918,16.58c4.693-8.02,13.394-13.421,23.338-13.421
									h4.898v23.176h1.579v-26.335H148.126z"/>
							</g>
						</g>
					</g>
					<g>
						<g>
							<path style="fill:#DE845B;" d="M181.954,375.165h-43.791c-1.068,0-1.935,0.866-1.935,1.934c0,1.068,0.866,1.935,1.935,1.935
								h43.791c1.068,0,1.935-0.866,1.935-1.935C183.888,376.031,183.022,375.165,181.954,375.165z"/>
							<path style="fill:#DE845B;" d="M194.286,375.165h-6.045c-1.068,0-1.934,0.866-1.934,1.934c0,1.068,0.866,1.935,1.934,1.935
								h6.045c1.068,0,1.934-0.866,1.934-1.935C196.22,376.031,195.354,375.165,194.286,375.165z"/>
						</g>
					</g>
				</g>
			</g>
			<g>
				<rect x="344.846" y="295.2" style="fill:#7EBA36;" width="21.628" height="12.359"/>
				<g>
					<path style="fill:#DD5515;" d="M366.878,285.733h-22.436c-0.76,0-1.376,0.616-1.376,1.376v10.262
						c0,0.76,0.616,1.376,1.376,1.376h22.436c0.76,0,1.376-0.616,1.376-1.376v-10.262
						C368.254,286.349,367.638,285.733,366.878,285.733z"/>
					<g>
						<path style="fill:#C54310;" d="M344.683,297.952L344.683,297.952c-0.301,0-0.545-0.244-0.545-0.545v-9.765
							c0-0.301,0.244-0.545,0.545-0.545l0,0c0.301,0,0.545,0.244,0.545,0.545v9.765
							C345.228,297.707,344.984,297.952,344.683,297.952z"/>
						<path style="fill:#C54310;" d="M346.879,297.952L346.879,297.952c-0.301,0-0.545-0.244-0.545-0.545v-9.765
							c0-0.301,0.244-0.545,0.545-0.545l0,0c0.301,0,0.545,0.244,0.545,0.545v9.765C347.424,297.707,347.18,297.952,346.879,297.952
							z"/>
						<path style="fill:#C54310;" d="M349.074,297.952L349.074,297.952c-0.301,0-0.545-0.244-0.545-0.545v-9.765
							c0-0.301,0.244-0.545,0.545-0.545l0,0c0.301,0,0.545,0.244,0.545,0.545v9.765
							C349.619,297.707,349.375,297.952,349.074,297.952z"/>
						<path style="fill:#C54310;" d="M351.269,297.952L351.269,297.952c-0.301,0-0.545-0.244-0.545-0.545v-9.765
							c0-0.301,0.244-0.545,0.545-0.545l0,0c0.301,0,0.545,0.244,0.545,0.545v9.765C351.815,297.707,351.57,297.952,351.269,297.952
							z"/>
						<path style="fill:#C54310;" d="M353.465,297.952L353.465,297.952c-0.301,0-0.545-0.244-0.545-0.545v-9.765
							c0-0.301,0.244-0.545,0.545-0.545l0,0c0.301,0,0.545,0.244,0.545,0.545v9.765C354.01,297.707,353.766,297.952,353.465,297.952
							z"/>
						<path style="fill:#C54310;" d="M355.66,297.952L355.66,297.952c-0.301,0-0.545-0.244-0.545-0.545v-9.765
							c0-0.301,0.244-0.545,0.545-0.545l0,0c0.301,0,0.545,0.244,0.545,0.545v9.765C356.205,297.707,355.961,297.952,355.66,297.952
							z"/>
						<path style="fill:#C54310;" d="M357.856,297.952L357.856,297.952c-0.301,0-0.545-0.244-0.545-0.545v-9.765
							c0-0.301,0.244-0.545,0.545-0.545l0,0c0.301,0,0.545,0.244,0.545,0.545v9.765
							C358.401,297.707,358.157,297.952,357.856,297.952z"/>
						<path style="fill:#C54310;" d="M360.051,297.952L360.051,297.952c-0.301,0-0.545-0.244-0.545-0.545v-9.765
							c0-0.301,0.244-0.545,0.545-0.545h0c0.301,0,0.545,0.244,0.545,0.545v9.765C360.596,297.707,360.352,297.952,360.051,297.952z
							"/>
						<path style="fill:#C54310;" d="M362.246,297.952L362.246,297.952c-0.301,0-0.545-0.244-0.545-0.545v-9.765
							c0-0.301,0.244-0.545,0.545-0.545l0,0c0.301,0,0.545,0.244,0.545,0.545v9.765
							C362.792,297.707,362.547,297.952,362.246,297.952z"/>
						<path style="fill:#C54310;" d="M364.442,297.952L364.442,297.952c-0.301,0-0.545-0.244-0.545-0.545v-9.765
							c0-0.301,0.244-0.545,0.545-0.545l0,0c0.301,0,0.545,0.244,0.545,0.545v9.765
							C364.987,297.707,364.743,297.952,364.442,297.952z"/>
						<path style="fill:#C54310;" d="M366.637,297.952L366.637,297.952c-0.301,0-0.545-0.244-0.545-0.545v-9.765
							c0-0.301,0.244-0.545,0.545-0.545l0,0c0.301,0,0.545,0.244,0.545,0.545v9.765
							C367.182,297.707,366.938,297.952,366.637,297.952z"/>
					</g>
				</g>
				<g>
					<path style="fill:#87CA3C;" d="M386.442,352.707c-1.43-3.01-7.499-11.664-6.249-17.913c1.25-6.249,3.333-11.665,2.5-18.33
						c-0.21-1.675-0.682-3.246-1.272-4.658c-1.794-4.292-6.085-7.007-10.736-7.007H355.22h-15.463
						c-4.652,0-8.942,2.715-10.736,7.007c-0.59,1.412-1.063,2.982-1.272,4.658c-0.833,6.666,1.25,12.081,2.499,18.33
						c1.25,6.249-4.819,14.903-6.249,17.913c-3.757,7.907-18.007,40.618,0,77.486c0.031,0.064,0.063,0.128,0.094,0.191
						c2.463,4.999,7.572,8.141,13.145,8.141h17.982h17.983c5.573,0,10.682-3.142,13.145-8.141c0.031-0.063,0.062-0.127,0.094-0.191
						C404.449,393.325,390.199,360.614,386.442,352.707z"/>
					<path style="fill:#7EBA36;" d="M380.193,334.793c1.25-6.249,3.333-11.665,2.5-18.33c-0.21-1.675-0.682-3.246-1.272-4.658
						c-1.794-4.292-6.085-7.007-10.736-7.007h-3.293c-0.046,0.622-0.069,0.961-0.069,0.961s11.948,10.138,6.517,22.447
						c-5.431,12.31,0,21.723,5.431,40.912c5.431,19.189,2.534,40.912-12.672,51.774c-11.028,7.877-32.525,7.185-43.785,6.763
						c0.381,0.844,0.772,1.689,1.187,2.537c0.031,0.064,0.063,0.128,0.094,0.191c2.463,4.999,7.572,8.141,13.145,8.141h17.982
						h17.983c5.573,0,10.682-3.142,13.145-8.141c0.031-0.063,0.062-0.127,0.094-0.191c18.007-36.868,3.757-69.579,0-77.486
						C385.012,349.697,378.943,341.042,380.193,334.793z"/>
				</g>
				<ellipse style="fill:#DD5515;" cx="355.193" cy="386.498" rx="29.869" ry="35.481"/>
				<path style="fill:#73ABF9;" d="M355.193,419.124c-14.896,0-27.015-14.636-27.015-32.627c0-17.99,12.119-32.627,27.015-32.627
					c14.896,0,27.015,14.636,27.015,32.627C382.207,404.488,370.089,419.124,355.193,419.124z"/>
				<path style="fill:#FFFFFF;" d="M355.193,416.269c-13.322,0-24.16-13.356-24.16-29.772c0-16.416,10.838-29.772,24.16-29.772
					c13.322,0,24.16,13.356,24.16,29.772C379.353,402.914,368.515,416.269,355.193,416.269z"/>
				<path style="fill:#73ABF9;" d="M370.141,385.771c-16.197-0.238-17.15,8.099-30.965,7.146c-2.407-0.166-4.79-0.714-7.089-1.496
					c1.749,13.78,11.445,24.357,23.111,24.357c12.899,0,23.393-12.932,23.393-28.827c0-0.2-0.009-0.397-0.012-0.596
					C375.959,386.039,373.14,385.815,370.141,385.771z"/>
				<g>
					<g>
						<path style="fill:#A8ED54;" d="M335.827,334.44c-0.81,0-1.585-0.462-1.947-1.246c-6.896-14.991,1.388-24.422,1.745-24.817
							c0.792-0.877,2.147-0.946,3.024-0.154c0.875,0.79,0.946,2.138,0.161,3.016c-0.291,0.33-6.707,7.844-1.039,20.165
							c0.494,1.074,0.024,2.346-1.05,2.84C336.43,334.376,336.126,334.44,335.827,334.44z"/>
					</g>
				</g>
			</g>
			<g>
				<g>
					<g>
						<path style="fill:#FFFFFF;" d="M248.963,418.748v12.215c0,4.176,3.386,7.562,7.562,7.562h99.06
							c4.176,0,7.562-3.385,7.562-7.562v-12.215H248.963z"/>
						<g>
							<rect x="248.963" y="424.507" style="fill:#E2D693;" width="114.184" height="2.096"/>
							<rect x="248.963" y="428.636" style="fill:#E2D693;" width="114.184" height="2.096"/>
							<path style="fill:#E2D693;" d="M362.056,434.861c0.388-0.643,0.682-1.347,0.866-2.096H249.188
								c0.184,0.749,0.478,1.453,0.866,2.096H362.056z"/>
						</g>
					</g>
					<g>
						<rect x="300.661" y="92.469" style="fill:#F0CC30;" width="12.852" height="323.684"/>
						<rect x="308.059" y="92.469" style="fill:#DFBD2C;" width="5.454" height="323.684"/>
					</g>
					<g>
						<path style="fill:#29487C;" d="M348.527,407.826l-28.504-25.168c-0.391-0.345-0.895-0.536-1.417-0.536h0v-4.559
							c0-1.326-1.075-2.401-2.401-2.401H297.97c-1.326,0-2.401,1.075-2.401,2.401v4.559h0c-0.522,0-1.026,0.191-1.417,0.536
							l-28.504,25.168c-0.46,0.407-0.724,0.991-0.724,1.605v8.864c0,1.182,0.959,2.141,2.141,2.141h80.046
							c1.182,0,2.141-0.959,2.141-2.141v-8.864C349.251,408.816,348.987,408.232,348.527,407.826z M269.205,416.154v-5.757
							l26.363-23.278v29.036H269.205z M344.969,416.154h-26.364v-29.035l26.364,23.278V416.154z"/>
						<path style="fill:#28466E;" d="M316.204,375.161h-3.685v34.906c0,3.361,2.725,6.086,6.086,6.086l0,0v-38.591
							C318.605,376.236,317.53,375.161,316.204,375.161z"/>
					</g>
					<g>
						<path style="fill:#3B6497;" d="M301.486,384.633v-5.779c0-0.905-0.734-1.639-1.639-1.639c-0.905,0-1.639,0.734-1.639,1.639
							v5.779c0,0.905,0.734,1.639,1.639,1.639C300.752,386.272,301.486,385.538,301.486,384.633z"/>
						<path style="fill:#3B6497;" d="M301.486,389.671v-1.138c0-0.905-0.734-1.639-1.639-1.639c-0.905,0-1.639,0.734-1.639,1.639
							v1.138c0,0.905,0.734,1.639,1.639,1.639C300.752,391.31,301.486,390.576,301.486,389.671z"/>
					</g>
					<g>
						<path style="fill:#4A809F;" d="M366.366,415.229H246.129c-1.148,0-2.078,0.93-2.078,2.078v2.882
							c0,1.148,0.93,2.078,2.078,2.078h120.237c1.148,0,2.078-0.93,2.078-2.078v-2.882
							C368.444,416.159,367.513,415.229,366.366,415.229z"/>
						<path style="fill:#3C6B8B;" d="M368.444,420.189v-2.882c0-1.148-0.93-2.078-2.078-2.078h-2.167
							c-1.687,1.845-6.836,4.146-21.486,5.178c-18.325,1.29-69.207-0.008-98.662-0.924v0.706c0,1.148,0.93,2.078,2.078,2.078
							h120.237C367.513,422.267,368.444,421.336,368.444,420.189z"/>
					</g>
				</g>
				<g>
					<path style="fill:#29487C;" d="M306.247,65.723c-4.243,0-7.683,3.44-7.683,7.683v45.811h15.365V73.405
						C313.93,69.162,310.49,65.723,306.247,65.723z M309.32,80.795c0,1.697-1.376,3.073-3.073,3.073
						c-1.697,0-3.073-1.376-3.073-3.073v-6.704c0-1.697,1.376-3.073,3.073-3.073c1.697,0,3.073,1.376,3.073,3.073V80.795z"/>
					<g>
						<g>
							<g>
								<path style="fill:#28466E;" d="M306.247,65.723c-0.69,0-1.356,0.099-1.992,0.27c3.276,0.879,5.691,3.86,5.691,7.412v45.811
									h3.984V73.405C313.93,69.162,310.49,65.723,306.247,65.723z"/>
							</g>
						</g>
					</g>
				</g>
			</g>
			<g>
				<g>
					<rect x="222.626" y="91.203" style="fill:#29487C;" width="12.852" height="301.875"/>
					<rect x="230.024" y="91.203" style="opacity:0.5;fill:#29487C;" width="5.454" height="301.875"/>
					<g>
						<path style="fill:#F0CC30;" d="M240.571,404.761h-23.037v-15.738c0-1.361,1.103-2.465,2.464-2.465h18.108
							c1.361,0,2.465,1.103,2.465,2.465V404.761z"/>
						<path style="fill:#F0CC30;" d="M238.169,386.559h-3.685v18.202h6.086V388.96C240.571,387.634,239.496,386.559,238.169,386.559
							z"/>
					</g>
					<g>
						<g>
							<polygon style="fill:#F4EBBD;" points="183.318,438.525 182.644,421.677 180.651,421.677 178.657,421.677 177.983,438.525 
								178.774,438.525 179.094,433.628 179.35,438.525 179.793,438.525 180.221,434.572 180.272,438.525 180.651,438.525 
								181.029,438.525 181.08,434.572 181.508,438.525 181.951,438.525 181.95,431.572 182.527,438.525 							"/>
							<polygon style="fill:#F4EBBD;" points="189.744,438.525 189.071,421.677 187.077,421.677 185.083,421.677 184.409,438.525 
								185.2,438.525 185.52,433.628 185.776,438.525 186.219,438.525 186.647,434.572 186.698,438.525 187.077,438.525 
								187.455,438.525 187.507,434.572 187.935,438.525 188.378,438.525 188.377,431.572 188.954,438.525 							"/>
							<polygon style="fill:#F4EBBD;" points="196.171,438.525 195.497,421.677 193.503,421.677 191.509,421.677 190.835,438.525 
								191.626,438.525 191.946,433.628 192.202,438.525 192.645,438.525 193.073,434.572 193.124,438.525 193.503,438.525 
								193.882,438.525 193.933,434.572 194.361,438.525 194.804,438.525 194.803,431.572 195.38,438.525 							"/>
							<polygon style="fill:#F4EBBD;" points="202.597,438.525 201.923,421.677 199.929,421.677 197.935,421.677 197.261,438.525 
								198.052,438.525 198.373,433.628 198.628,438.525 199.071,438.525 199.499,434.572 199.55,438.525 199.929,438.525 
								200.308,438.525 200.359,434.572 200.787,438.525 201.23,438.525 201.229,431.572 201.806,438.525 							"/>
							<polygon style="fill:#F4EBBD;" points="209.023,438.525 208.349,421.677 206.355,421.677 204.361,421.677 203.688,438.525 
								204.479,438.525 204.799,433.628 205.055,438.525 205.497,438.525 205.925,434.572 205.977,438.525 206.355,438.525 
								206.734,438.525 206.785,434.572 207.213,438.525 207.656,438.525 207.655,431.572 208.232,438.525 							"/>
							<polygon style="fill:#F4EBBD;" points="215.449,438.525 214.775,421.677 212.781,421.677 210.788,421.677 210.114,438.525 
								210.905,438.525 211.225,433.628 211.481,438.525 211.923,438.525 212.352,434.572 212.403,438.525 212.781,438.525 
								213.16,438.525 213.211,434.572 213.639,438.525 214.082,438.525 214.081,431.572 214.658,438.525 							"/>
							<polygon style="fill:#F4EBBD;" points="221.875,438.525 221.201,421.677 219.208,421.677 217.214,421.677 216.54,438.525 
								217.331,438.525 217.651,433.628 217.907,438.525 218.35,438.525 218.778,434.572 218.829,438.525 219.208,438.525 
								219.586,438.525 219.637,434.572 220.066,438.525 220.508,438.525 220.507,431.572 221.084,438.525 							"/>
							<polygon style="fill:#F4EBBD;" points="228.301,438.525 227.628,421.677 225.634,421.677 223.64,421.677 222.966,438.525 
								223.757,438.525 224.077,433.628 224.333,438.525 224.776,438.525 225.204,434.572 225.255,438.525 225.634,438.525 
								226.012,438.525 226.064,434.572 226.492,438.525 226.934,438.525 226.934,431.572 227.511,438.525 							"/>
							<polygon style="fill:#F4EBBD;" points="234.728,438.525 234.054,421.677 232.06,421.677 230.066,421.677 229.392,438.525 
								230.183,438.525 230.503,433.628 230.759,438.525 231.202,438.525 231.63,434.572 231.681,438.525 232.06,438.525 
								232.439,438.525 232.49,434.572 232.918,438.525 233.361,438.525 233.36,431.572 233.937,438.525 							"/>
							<polygon style="fill:#F4EBBD;" points="241.154,438.525 240.48,421.677 238.486,421.677 236.492,421.677 235.818,438.525 
								236.609,438.525 236.93,433.628 237.185,438.525 237.628,438.525 238.056,434.572 238.107,438.525 238.486,438.525 
								238.865,438.525 238.916,434.572 239.344,438.525 239.787,438.525 239.786,431.572 240.363,438.525 							"/>
							<polygon style="fill:#F4EBBD;" points="247.58,438.525 246.906,421.677 244.912,421.677 242.918,421.677 242.244,438.525 
								243.035,438.525 243.356,433.628 243.612,438.525 244.054,438.525 244.482,434.572 244.533,438.525 244.912,438.525 
								245.291,438.525 245.342,434.572 245.77,438.525 246.213,438.525 246.212,431.572 246.789,438.525 							"/>
							<polygon style="fill:#F4EBBD;" points="254.006,438.525 253.332,421.677 251.338,421.677 249.345,421.677 248.671,438.525 
								249.462,438.525 249.782,433.628 250.038,438.525 250.48,438.525 250.909,434.572 250.96,438.525 251.338,438.525 
								251.717,438.525 251.768,434.572 252.196,438.525 252.639,438.525 252.638,431.572 253.215,438.525 							"/>
							<polygon style="fill:#F4EBBD;" points="260.432,438.525 259.758,421.677 257.765,421.677 255.771,421.677 255.097,438.525 
								255.888,438.525 256.208,433.628 256.464,438.525 256.907,438.525 257.335,434.572 257.386,438.525 257.765,438.525 
								258.143,438.525 258.194,434.572 258.623,438.525 259.065,438.525 259.064,431.572 259.641,438.525 							"/>
							<polygon style="fill:#F4EBBD;" points="266.858,438.525 266.185,421.677 264.191,421.677 262.197,421.677 261.523,438.525 
								262.314,438.525 262.634,433.628 262.89,438.525 263.333,438.525 263.761,434.572 263.812,438.525 264.191,438.525 
								264.57,438.525 264.621,434.572 265.049,438.525 265.491,438.525 265.491,431.572 266.068,438.525 							"/>
							<polygon style="fill:#F4EBBD;" points="273.285,438.525 272.611,421.677 270.617,421.677 268.623,421.677 267.949,438.525 
								268.74,438.525 269.06,433.628 269.316,438.525 269.759,438.525 270.187,434.572 270.238,438.525 270.617,438.525 
								270.996,438.525 271.047,434.572 271.475,438.525 271.918,438.525 271.917,431.572 272.494,438.525 							"/>
							<polygon style="fill:#F4EBBD;" points="279.711,438.525 279.037,421.677 277.043,421.677 275.049,421.677 274.375,438.525 
								275.166,438.525 275.487,433.628 275.742,438.525 276.185,438.525 276.613,434.572 276.664,438.525 277.043,438.525 
								277.422,438.525 277.473,434.572 277.901,438.525 278.344,438.525 278.343,431.572 278.92,438.525 							"/>
						</g>
						<path style="fill:#F0CC30;" d="M270.188,402.307h-82.272c-6.253,0-11.322,5.069-11.322,11.322v11.322H281.51v-11.322
							C281.51,407.376,276.441,402.307,270.188,402.307z"/>
						<g style="opacity:0.5;">
							<path style="fill:#FFFFFF;" d="M253.427,404.761H203.99c-1.206,0-2.184,0.978-2.184,2.184c0,1.206,0.978,2.184,2.184,2.184
								h49.438c1.206,0,2.184-0.978,2.184-2.184C255.611,405.738,254.633,404.761,253.427,404.761z"/>
							<path style="fill:#FFFFFF;" d="M267.349,404.761h-6.825c-1.206,0-2.184,0.978-2.184,2.184c0,1.206,0.978,2.184,2.184,2.184
								h6.825c1.206,0,2.184-0.978,2.184-2.184C269.533,405.738,268.555,404.761,267.349,404.761z"/>
						</g>
						<path style="fill:#F0CC30;" d="M272.154,402.488c0.055,0.186,3.225,10.961-3.832,15.575
							c-5.819,3.805-68.899,3.035-91.727,2.628v4.259H281.51v-11.322C281.51,408.047,277.468,403.42,272.154,402.488z"/>
					</g>
					<g>
						<path style="fill:#F0CC30;" d="M229.052,64.456c-4.243,0-7.683,3.44-7.683,7.683v45.811h15.365V72.139
							C236.735,67.896,233.295,64.456,229.052,64.456z M232.125,79.529c0,1.697-1.376,3.073-3.073,3.073
							c-1.697,0-3.073-1.376-3.073-3.073v-6.704c0-1.697,1.376-3.073,3.073-3.073c1.697,0,3.073,1.376,3.073,3.073V79.529z"/>
						<g>
							<g>
								<g>
									<path style="fill:#DFBD2C;" d="M229.052,64.456c-0.69,0-1.356,0.1-1.992,0.27c3.276,0.879,5.691,3.86,5.691,7.412v45.811
										h3.983V72.139C236.735,67.896,233.295,64.456,229.052,64.456z"/>
								</g>
							</g>
						</g>
					</g>
				</g>
				<path style="fill:#365C8F;" d="M236.95,84.318h-15.795c-0.414,0-0.749,0.336-0.749,0.749v0.807c0,0.414,0.336,0.749,0.749,0.749
					h15.795c0.414,0,0.749-0.336,0.749-0.749v-0.807C237.699,84.654,237.364,84.318,236.95,84.318z"/>
				<path style="fill:#365C8F;" d="M236.95,88.007h-15.795c-0.414,0-0.749,0.336-0.749,0.749v0.807c0,0.414,0.336,0.749,0.749,0.749
					h15.795c0.414,0,0.749-0.336,0.749-0.749v-0.807C237.699,88.343,237.364,88.007,236.95,88.007z"/>
				<path style="fill:#365C8F;" d="M236.95,91.697h-15.795c-0.414,0-0.749,0.336-0.749,0.749v0.807c0,0.414,0.336,0.749,0.749,0.749
					h15.795c0.414,0,0.749-0.336,0.749-0.749v-0.807C237.699,92.032,237.364,91.697,236.95,91.697z"/>
				<path style="fill:#365C8F;" d="M236.95,95.386h-15.795c-0.414,0-0.749,0.336-0.749,0.749v0.807c0,0.414,0.336,0.749,0.749,0.749
					h15.795c0.414,0,0.749-0.336,0.749-0.749v-0.807C237.699,95.722,237.364,95.386,236.95,95.386z"/>
				<path style="fill:#365C8F;" d="M236.95,99.075h-15.795c-0.414,0-0.749,0.335-0.749,0.749v0.807c0,0.414,0.336,0.749,0.749,0.749
					h15.795c0.414,0,0.749-0.336,0.749-0.749v-0.807C237.699,99.411,237.364,99.075,236.95,99.075z"/>
				<path style="fill:#365C8F;" d="M236.95,102.765h-15.795c-0.414,0-0.749,0.336-0.749,0.749v0.807
					c0,0.414,0.336,0.749,0.749,0.749h15.795c0.414,0,0.749-0.336,0.749-0.749v-0.807C237.699,103.1,237.364,102.765,236.95,102.765
					z"/>
				<path style="fill:#365C8F;" d="M236.95,106.454h-15.795c-0.414,0-0.749,0.335-0.749,0.749v0.807
					c0,0.414,0.336,0.749,0.749,0.749h15.795c0.414,0,0.749-0.336,0.749-0.749v-0.807
					C237.699,106.79,237.364,106.454,236.95,106.454z"/>
				<path style="fill:#365C8F;" d="M236.95,110.143h-15.795c-0.414,0-0.749,0.335-0.749,0.749v0.807
					c0,0.414,0.336,0.749,0.749,0.749h15.795c0.414,0,0.749-0.336,0.749-0.749v-0.807
					C237.699,110.479,237.364,110.143,236.95,110.143z"/>
			</g>
			<g>
				<path style="fill:#87CA3C;" d="M113.923,340.561L113.923,340.561c-2.657,0-4.81-2.154-4.81-4.81v-33.315
					c0-3.324,1.193-6.558,3.438-9.01c2.864-3.129,4.613-7.296,4.613-11.872c0-10.094-8.497-18.203-18.728-17.565
					c-8.74,0.545-15.861,7.641-16.434,16.38c-0.331,5.051,1.471,9.679,4.593,13.079c2.267,2.469,3.419,5.765,3.419,9.117v33.188
					c0,2.657-2.154,4.81-4.81,4.81h-0.278c-18.378,0-33.276,14.898-33.276,33.276v64.687h95.551v-64.687
					C147.199,355.459,132.301,340.561,113.923,340.561z M99.441,273.604c4.322,0,7.826,3.504,7.826,7.826
					c0,4.322-3.504,7.826-7.826,7.826c-4.322,0-7.826-3.504-7.826-7.826C91.614,277.108,95.118,273.604,99.441,273.604z"/>
				<g>
					<g>
						<g>
							<path style="fill:#87CA3C;" d="M113.875,340.559c-2.634-0.026-4.762-2.167-4.762-4.808v-33.315
								c0-3.324,1.193-6.558,3.438-9.01c2.864-3.129,4.613-7.296,4.613-11.872c0-10.094-8.497-18.203-18.728-17.565
								c-0.046,0.003-0.09,0.012-0.136,0.015c9.135,0.644,16.347,8.252,16.347,17.55c0,4.577-1.748,8.743-4.613,11.872
								c-2.244,2.452-3.438,5.686-3.438,9.01v33.315c0,2.657,2.154,4.81,4.81,4.81h0
								C112.238,340.561,113.875,340.559,113.875,340.559z"/>
						</g>
					</g>
				</g>
				<g>
					<g>
						<path style="fill:#FFFFFF;" d="M96.907,322.673v-21.292c0-1.206-0.978-2.184-2.184-2.184c-1.206,0-2.184,0.978-2.184,2.184
							v21.292c0,1.206,0.978,2.184,2.184,2.184C95.929,324.857,96.907,323.879,96.907,322.673z"/>
						<path style="fill:#FFFFFF;" d="M96.907,336.595v-6.824c0-1.206-0.978-2.184-2.184-2.184c-1.206,0-2.184,0.978-2.184,2.184
							v6.824c0,1.206,0.978,2.184,2.184,2.184C95.929,338.779,96.907,337.801,96.907,336.595z"/>
					</g>
				</g>
				<g>
					<path style="fill:#679130;" d="M112.505,350.144H86.343c-16.58,0-30.021,13.441-30.021,30.021v58.359h86.204v-58.359
						C142.526,363.585,129.085,350.144,112.505,350.144z"/>
					<rect x="56.322" y="432.495" style="fill:#87CA3C;" width="86.204" height="6.029"/>
					<path style="opacity:0.5;fill:#679130;" d="M112.505,350.144H86.343c-9.171,0-17.376,4.117-22.882,10.598
						c4.624-2.909,10.093-4.598,15.96-4.598h26.161c16.58,0,30.021,13.441,30.021,30.021v52.36h6.923v-58.359
						C142.526,363.585,129.085,350.144,112.505,350.144z"/>
				</g>
			</g>
			<g>
				<g>
					<g>
						<g>
							<path style="fill:#F0CC30;" d="M105.063,411.733l-5.255-10.38c-0.763-1.507-2.726-2.52-4.884-2.52H57.421
								c-2.158,0-4.121,1.013-4.884,2.52l-5.255,10.38l-6.482-3.281l5.255-10.38c2-3.951,6.462-6.504,11.366-6.504h37.503
								c4.904,0,9.366,2.553,11.366,6.504l5.255,10.38L105.063,411.733z"/>
						</g>
					</g>
					<path style="fill:#DFBD2C;" d="M99.808,401.353l5.255,10.38l6.482-3.281l-5.255-10.38c-1.119-2.21-3.008-3.981-5.313-5.114
						c-0.465,1.661-2.656,3.358-9.688,3.358c-13.762,0-36.638-2.439-40.934,1.858c-2.75,2.75-5.022,8.29-6.303,11.924l3.231,1.635
						l5.255-10.38c0.763-1.507,2.726-2.52,4.884-2.52h37.503C97.082,398.833,99.045,399.846,99.808,401.353z"/>
				</g>
				<path style="fill:#F0CC30;" d="M111.392,407.799H41.596c-5.305,0-9.605,4.3-9.605,9.605v9.605h89.006v-9.605
					C120.997,412.099,116.697,407.799,111.392,407.799z"/>
				<g>
					<polygon style="fill:#F4EBBD;" points="37.695,438.525 37.124,424.232 35.432,424.232 33.741,424.232 33.169,438.525 
						33.84,438.525 34.112,434.371 34.329,438.525 34.704,438.525 35.068,435.171 35.111,438.525 35.432,438.525 35.754,438.525 
						35.797,435.171 36.16,438.525 36.536,438.525 36.535,432.626 37.024,438.525 					"/>
					<polygon style="fill:#F4EBBD;" points="43.147,438.525 42.575,424.232 40.884,424.232 39.192,424.232 38.621,438.525 
						39.292,438.525 39.563,434.371 39.78,438.525 40.156,438.525 40.519,435.171 40.563,438.525 40.884,438.525 41.205,438.525 
						41.249,435.171 41.612,438.525 41.987,438.525 41.987,432.626 42.476,438.525 					"/>
					<polygon style="fill:#F4EBBD;" points="48.599,438.525 48.027,424.232 46.336,424.232 44.644,424.232 44.072,438.525 
						44.743,438.525 45.015,434.371 45.232,438.525 45.608,438.525 45.971,435.171 46.014,438.525 46.336,438.525 46.657,438.525 
						46.7,435.171 47.063,438.525 47.439,438.525 47.438,432.626 47.928,438.525 					"/>
					<polygon style="fill:#F4EBBD;" points="54.05,438.525 53.479,424.232 51.787,424.232 50.096,424.232 49.524,438.525 
						50.195,438.525 50.467,434.371 50.684,438.525 51.059,438.525 51.423,435.171 51.466,438.525 51.787,438.525 52.109,438.525 
						52.152,435.171 52.515,438.525 52.891,438.525 52.89,432.626 53.38,438.525 					"/>
					<polygon style="fill:#F4EBBD;" points="59.502,438.525 58.93,424.232 57.239,424.232 55.548,424.232 54.976,438.525 
						55.647,438.525 55.918,434.371 56.136,438.525 56.511,438.525 56.874,435.171 56.918,438.525 57.239,438.525 57.56,438.525 
						57.604,435.171 57.967,438.525 58.342,438.525 58.342,432.626 58.831,438.525 					"/>
					<polygon style="fill:#F4EBBD;" points="64.954,438.525 64.382,424.232 62.691,424.232 60.999,424.232 60.428,438.525 
						61.098,438.525 61.37,434.371 61.587,438.525 61.963,438.525 62.326,435.171 62.369,438.525 62.691,438.525 63.012,438.525 
						63.055,435.171 63.418,438.525 63.794,438.525 63.793,432.626 64.283,438.525 					"/>
					<polygon style="fill:#F4EBBD;" points="70.406,438.525 69.834,424.232 68.142,424.232 66.451,424.232 65.879,438.525 
						66.55,438.525 66.822,434.371 67.039,438.525 67.414,438.525 67.778,435.171 67.821,438.525 68.142,438.525 68.464,438.525 
						68.507,435.171 68.87,438.525 69.246,438.525 69.245,432.626 69.735,438.525 					"/>
					<polygon style="fill:#F4EBBD;" points="75.857,438.525 75.285,424.232 73.594,424.232 71.903,424.232 71.331,438.525 
						72.002,438.525 72.274,434.371 72.491,438.525 72.866,438.525 73.229,435.171 73.273,438.525 73.594,438.525 73.915,438.525 
						73.959,435.171 74.322,438.525 74.698,438.525 74.697,432.626 75.186,438.525 					"/>
					<polygon style="fill:#F4EBBD;" points="81.309,438.525 80.737,424.232 79.046,424.232 77.354,424.232 76.783,438.525 
						77.454,438.525 77.725,434.371 77.942,438.525 78.318,438.525 78.681,435.171 78.724,438.525 79.046,438.525 79.367,438.525 
						79.41,435.171 79.774,438.525 80.149,438.525 80.148,432.626 80.638,438.525 					"/>
					<polygon style="fill:#F4EBBD;" points="86.761,438.525 86.189,424.232 84.497,424.232 82.806,424.232 82.234,438.525 
						82.905,438.525 83.177,434.371 83.394,438.525 83.77,438.525 84.133,435.171 84.176,438.525 84.497,438.525 84.819,438.525 
						84.862,435.171 85.225,438.525 85.601,438.525 85.6,432.626 86.09,438.525 					"/>
					<polygon style="fill:#F4EBBD;" points="92.212,438.525 91.641,424.232 89.949,424.232 88.258,424.232 87.686,438.525 
						88.357,438.525 88.629,434.371 88.846,438.525 89.221,438.525 89.585,435.171 89.628,438.525 89.949,438.525 90.271,438.525 
						90.314,435.171 90.677,438.525 91.053,438.525 91.052,432.626 91.541,438.525 					"/>
					<polygon style="fill:#F4EBBD;" points="97.664,438.525 97.092,424.232 95.401,424.232 93.709,424.232 93.138,438.525 
						93.809,438.525 94.08,434.371 94.297,438.525 94.673,438.525 95.036,435.171 95.079,438.525 95.401,438.525 95.722,438.525 
						95.766,435.171 96.129,438.525 96.504,438.525 96.504,432.626 96.993,438.525 					"/>
					<polygon style="fill:#F4EBBD;" points="103.116,438.525 102.544,424.232 100.853,424.232 99.161,424.232 98.589,438.525 
						99.26,438.525 99.532,434.371 99.749,438.525 100.125,438.525 100.488,435.171 100.531,438.525 100.853,438.525 
						101.174,438.525 101.217,435.171 101.58,438.525 101.956,438.525 101.955,432.626 102.445,438.525 					"/>
					<polygon style="fill:#F4EBBD;" points="108.567,438.525 107.996,424.232 106.304,424.232 104.613,424.232 104.041,438.525 
						104.712,438.525 104.984,434.371 105.201,438.525 105.576,438.525 105.94,435.171 105.983,438.525 106.304,438.525 
						106.626,438.525 106.669,435.171 107.032,438.525 107.408,438.525 107.407,432.626 107.896,438.525 					"/>
					<polygon style="fill:#F4EBBD;" points="114.019,438.525 113.447,424.232 111.756,424.232 110.064,424.232 109.493,438.525 
						110.164,438.525 110.435,434.371 110.652,438.525 111.028,438.525 111.391,435.171 111.435,438.525 111.756,438.525 
						112.077,438.525 112.121,435.171 112.484,438.525 112.859,438.525 112.859,432.626 113.348,438.525 					"/>
					<polygon style="fill:#F4EBBD;" points="119.471,438.525 118.899,424.232 117.208,424.232 115.516,424.232 114.944,438.525 
						115.615,438.525 115.887,434.371 116.104,438.525 116.48,438.525 116.843,435.171 116.886,438.525 117.208,438.525 
						117.529,438.525 117.572,435.171 117.935,438.525 118.311,438.525 118.31,432.626 118.8,438.525 					"/>
				</g>
				<g>
					<g>
						<path style="fill:#F2E186;" d="M97.173,409.881H55.232c-1.023,0-1.853,0.829-1.853,1.853s0.829,1.853,1.853,1.853h41.941
							c1.023,0,1.853-0.829,1.853-1.853S98.196,409.881,97.173,409.881z"/>
						<path style="fill:#F2E186;" d="M108.984,409.881h-5.79c-1.023,0-1.853,0.829-1.853,1.853s0.829,1.853,1.853,1.853h5.79
							c1.023,0,1.853-0.829,1.853-1.853S110.007,409.881,108.984,409.881z"/>
					</g>
				</g>
				<path style="fill:#DFBD2C;" d="M113.06,407.953c0.047,0.158,2.736,9.299-3.251,13.213c-4.937,3.228-58.451,2.575-77.818,2.229
					v3.613h89.006v-9.605C120.997,412.669,117.568,408.744,113.06,407.953z"/>
			</g>
			<g>
				<path style="fill:#F0CC30;" d="M448.375,346.587c-2.363-2.156-7.077-7.655-4.129-15.217l-8.027,1.505
					c0,0-0.445,11.872,9.708,17.163c1.063,0.554,2.375,0.143,2.911-0.93C449.264,348.258,449.078,347.229,448.375,346.587z"/>
				<path style="fill:#DFBD2C;" d="M440.065,339.063c0-1.882,1.975-3.393,3.313-4.203c0.119-1.106,0.393-2.271,0.868-3.49
					l-8.027,1.505c0,0-0.445,11.872,9.708,17.163c1.063,0.554,2.375,0.143,2.911-0.93c0.001-0.003,0.002-0.006,0.004-0.009
					C443.909,346.82,440.065,341.274,440.065,339.063z"/>
				<g>
					<rect x="446.475" y="323.243" style="fill:#F0CC30;" width="14.596" height="5.925"/>
					<rect x="446.475" y="326.206" style="fill:#DFBD2C;" width="14.596" height="2.963"/>
					<path style="fill:#5C96DE;" d="M467.404,323.571l-7.821-1.212c-0.433-0.067-0.823,0.268-0.823,0.706v5.993
						c0,0.438,0.391,0.773,0.823,0.706l7.821-1.212c0.348-0.054,0.605-0.353,0.605-0.706v-3.569
						C468.009,323.925,467.752,323.625,467.404,323.571z"/>
					<path style="fill:#4678AE;" d="M468.009,327.846v-3.569c0-0.115-0.035-0.219-0.084-0.316c-0.12,0.963-0.606,2.327-2.346,2.773
						c-1.385,0.355-4.268,0.463-6.82,0.482v1.842c0,0.438,0.391,0.773,0.823,0.706l7.821-1.212
						C467.752,328.498,468.009,328.198,468.009,327.846z"/>
				</g>
				<path style="fill:#5C96DE;" d="M419.529,337.381c0,0-1.863-4.805-6.046-6.837c-4.183-2.032-4.183-9.084-0.956-11.236
					c3.227-2.151,22.232-2.749,27.252-1.434c3.759,0.984,7.249,2.371,8.766,3.005c0.482,0.202,0.796,0.672,0.796,1.194v8.198
					c0,0.586-0.39,1.098-0.956,1.249c-1.672,0.447-5.224,1.364-8.128,1.892c-3.944,0.717-7.291,0.956-7.291,1.554
					c0,0.598,0.192,2.414,0.192,2.414H419.529z"/>
				<path style="fill:#4678AE;" d="M448.545,320.88c-0.507-0.212-1.237-0.509-2.12-0.845c0.504,2.837,0.603,6.413-1.804,7.299
					c-4.138,1.525-15.791,0.544-16.989,3.158c-1.024,2.235-3.008,4.547-9.211,4.763c0.752,1.206,1.109,2.126,1.109,2.126h13.629
					c0,0-0.192-1.817-0.192-2.414c0-0.598,3.347-0.837,7.291-1.554c2.904-0.528,6.457-1.445,8.128-1.892
					c0.566-0.151,0.956-0.663,0.956-1.249v-8.198C449.342,321.551,449.027,321.081,448.545,320.88z"/>
				<path style="fill:#F0CC30;" d="M418.295,345.009h14.647c0,0,5.633,26.891,17.745,32.599c8.855,4.173,8.827,34.803,8.172,50.975
					c-0.225,5.556-4.792,9.941-10.352,9.941h-23.999c-5.663,0-10.278-4.545-10.359-10.207
					C413.86,408.133,413.786,363.475,418.295,345.009z"/>
				<path style="fill:#DFBD2C;" d="M450.688,377.608c-12.112-5.709-17.745-32.599-17.745-32.599h-14.647
					c-0.558,2.287-1.047,4.978-1.473,7.973c3.081-1.743,7.964-3.771,10.655-1.079c4.134,4.134,5.542,13.321,13.522,21.3
					s10.748,17.854,10.748,33.029c0,14.015-10.392,29.538-36.254,27.036c1.781,3.141,5.153,5.257,9.015,5.257h23.999
					c5.56,0,10.127-4.386,10.352-9.941C459.515,412.411,459.542,381.781,450.688,377.608z"/>
				<path style="fill:#FFFFFF;" d="M429.45,432.267c-4.875,0-8.84-3.966-8.84-8.84V393.85c0-4.875,3.966-8.84,8.84-8.84h10.928
					c4.875,0,8.84,3.966,8.84,8.84v29.576c0,4.875-3.966,8.84-8.84,8.84H429.45z"/>
				<path style="fill:#DD5515;" d="M440.378,386.921H429.45c-3.827,0-6.93,3.103-6.93,6.93v29.576c0,3.827,3.102,6.93,6.93,6.93
					h10.928c3.827,0,6.93-3.102,6.93-6.93V393.85C447.308,390.023,444.205,386.921,440.378,386.921z"/>
				<g>
					<path style="fill:#DD5515;" d="M433.325,336.44h-15.476c-0.524,0-0.949,0.425-0.949,0.949v7.079
						c0,0.524,0.425,0.949,0.949,0.949h15.476c0.524,0,0.949-0.425,0.949-0.949v-7.079
						C434.273,336.865,433.849,336.44,433.325,336.44z"/>
					<g>
						<path style="fill:#C54310;" d="M418.015,344.868L418.015,344.868c-0.208,0-0.376-0.168-0.376-0.376v-6.735
							c0-0.208,0.168-0.376,0.376-0.376l0,0c0.208,0,0.376,0.168,0.376,0.376v6.735C418.391,344.7,418.223,344.868,418.015,344.868z
							"/>
						<path style="fill:#C54310;" d="M419.529,344.868L419.529,344.868c-0.208,0-0.376-0.168-0.376-0.376v-6.735
							c0-0.208,0.168-0.376,0.376-0.376l0,0c0.208,0,0.376,0.168,0.376,0.376v6.735C419.905,344.7,419.737,344.868,419.529,344.868z
							"/>
						<path style="fill:#C54310;" d="M421.044,344.868L421.044,344.868c-0.208,0-0.376-0.168-0.376-0.376v-6.735
							c0-0.208,0.168-0.376,0.376-0.376l0,0c0.208,0,0.376,0.168,0.376,0.376v6.735C421.42,344.7,421.251,344.868,421.044,344.868z"
							/>
						<path style="fill:#C54310;" d="M422.558,344.868L422.558,344.868c-0.208,0-0.376-0.168-0.376-0.376v-6.735
							c0-0.208,0.168-0.376,0.376-0.376l0,0c0.208,0,0.376,0.168,0.376,0.376v6.735C422.934,344.7,422.766,344.868,422.558,344.868z
							"/>
						<path style="fill:#C54310;" d="M424.072,344.868L424.072,344.868c-0.208,0-0.376-0.168-0.376-0.376v-6.735
							c0-0.208,0.168-0.376,0.376-0.376l0,0c0.208,0,0.376,0.168,0.376,0.376v6.735C424.448,344.7,424.28,344.868,424.072,344.868z"
							/>
						<path style="fill:#C54310;" d="M425.587,344.868L425.587,344.868c-0.208,0-0.376-0.168-0.376-0.376v-6.735
							c0-0.208,0.168-0.376,0.376-0.376l0,0c0.208,0,0.376,0.168,0.376,0.376v6.735C425.963,344.7,425.794,344.868,425.587,344.868z
							"/>
						<path style="fill:#C54310;" d="M427.101,344.868L427.101,344.868c-0.208,0-0.376-0.168-0.376-0.376v-6.735
							c0-0.208,0.168-0.376,0.376-0.376l0,0c0.208,0,0.376,0.168,0.376,0.376v6.735C427.477,344.7,427.309,344.868,427.101,344.868z
							"/>
						<path style="fill:#C54310;" d="M428.615,344.868L428.615,344.868c-0.208,0-0.376-0.168-0.376-0.376v-6.735
							c0-0.208,0.168-0.376,0.376-0.376l0,0c0.208,0,0.376,0.168,0.376,0.376v6.735C428.991,344.7,428.823,344.868,428.615,344.868z
							"/>
						<path style="fill:#C54310;" d="M430.13,344.868L430.13,344.868c-0.208,0-0.376-0.168-0.376-0.376v-6.735
							c0-0.208,0.168-0.376,0.376-0.376l0,0c0.208,0,0.376,0.168,0.376,0.376v6.735C430.506,344.7,430.337,344.868,430.13,344.868z"
							/>
						<path style="fill:#C54310;" d="M431.644,344.868L431.644,344.868c-0.208,0-0.376-0.168-0.376-0.376v-6.735
							c0-0.208,0.168-0.376,0.376-0.376l0,0c0.208,0,0.376,0.168,0.376,0.376v6.735C432.02,344.7,431.852,344.868,431.644,344.868z"
							/>
						<path style="fill:#C54310;" d="M433.158,344.868L433.158,344.868c-0.208,0-0.376-0.168-0.376-0.376v-6.735
							c0-0.208,0.168-0.376,0.376-0.376l0,0c0.208,0,0.376,0.168,0.376,0.376v6.735C433.534,344.7,433.366,344.868,433.158,344.868z
							"/>
					</g>
				</g>
			</g>
			<g>
				<g>
					<path style="fill:#4A809F;" d="M405.394,413.986H392.65v-97.865c0-3.519,2.853-6.372,6.372-6.372h0
						c3.519,0,6.372,2.853,6.372,6.372V413.986z"/>
					<path style="fill:#3C6B8B;" d="M399.022,309.75c-0.751,0-1.469,0.137-2.138,0.376c2.466,0.88,4.234,3.229,4.234,5.996v97.865
						h4.277v-97.865C405.394,312.603,402.541,309.75,399.022,309.75z"/>
					<g>
						<g>
							<path style="fill:#5D9DB8;" d="M397.871,378.686v-59.735c0-0.97-0.786-1.756-1.756-1.756c-0.97,0-1.756,0.786-1.756,1.756
								v59.735c0,0.97,0.786,1.756,1.756,1.756C397.085,380.442,397.871,379.656,397.871,378.686z"/>
							<path style="fill:#5D9DB8;" d="M397.871,389.881v-5.487c0-0.97-0.786-1.756-1.756-1.756c-0.97,0-1.756,0.786-1.756,1.756
								v5.487c0,0.97,0.786,1.756,1.756,1.756C397.085,391.637,397.871,390.851,397.871,389.881z"/>
						</g>
					</g>
				</g>
				<g>
					<path style="fill:#29487C;" d="M420.818,425.729h-43.592l4.659-9.813c1.404-2.956,4.384-4.84,7.656-4.84h18.961
						c3.272,0,6.252,1.884,7.656,4.84L420.818,425.729z"/>
					<path style="fill:#28466E;" d="M416.159,415.917c-1.404-2.956-4.384-4.84-7.656-4.84h-2.247
						c1.573,0.761,4.889,1.24,4.369,5.923c-0.579,5.221-22.453,5.975-32.158,6.117l-1.24,2.611h43.592L416.159,415.917z"/>
				</g>
				<g>
					<path style="fill:#28466E;" d="M440.806,424.45h-83.567c-0.801,0-1.45,0.649-1.45,1.45v4.573c0,0.801,0.649,1.45,1.45,1.45
						h83.567c0.801,0,1.45-0.649,1.45-1.45V425.9C442.255,425.099,441.606,424.45,440.806,424.45z"/>
					<g>
						<g>
							<polygon style="fill:#3C6B8B;" points="449.853,437.165 348.192,437.165 352.872,427.194 445.173,427.194 							"/>
							<rect x="348.192" y="437.165" style="fill:#29487C;" width="101.66" height="1.36"/>
						</g>
						<path style="fill:#4A809F;" d="M351.876,429.316l-3.684,7.849h86.339C412.744,429.172,367.88,429.073,351.876,429.316z"/>
					</g>
				</g>
			</g>
		</g>
		<path style="fill:#FFFFFF;" d="M70.746,265.22l8.026-1.267l-8.026-1.267c-1.853-0.293-3.307-1.746-3.6-3.6l-1.267-8.026
			l-1.267,8.026c-0.293,1.853-1.746,3.307-3.599,3.6l-8.026,1.267l8.026,1.267c1.853,0.293,3.307,1.746,3.599,3.6l1.267,8.026
			l1.267-8.026C67.439,266.966,68.893,265.512,70.746,265.22z"/>
		<path style="fill:#FFFFFF;" d="M382.093,223.981l8.026-1.267l-8.026-1.267c-1.853-0.293-3.307-1.746-3.599-3.599l-1.267-8.026
			l-1.267,8.026c-0.293,1.853-1.746,3.307-3.599,3.599l-8.026,1.267l8.026,1.267c1.853,0.293,3.307,1.746,3.599,3.6l1.267,8.026
			l1.267-8.026C378.786,225.727,380.24,224.273,382.093,223.981z"/>
		<path style="fill:#FFFFFF;" d="M106.24,202.87l1.491,9.443l1.491-9.443c0.344-2.18,2.054-3.891,4.235-4.235l9.443-1.491
			l-9.443-1.491c-2.181-0.344-3.891-2.055-4.235-4.235l-1.491-9.443l-1.491,9.443c-0.344,2.181-2.054,3.891-4.235,4.235
			l-9.443,1.491l9.443,1.491C104.186,198.979,105.896,200.69,106.24,202.87z"/>
		<path style="fill:#FFFFFF;" d="M193.896,304.639l1.874,11.867l1.874-11.867c0.433-2.74,2.582-4.889,5.322-5.322l11.867-1.874
			l-11.867-1.874c-2.74-0.433-4.889-2.582-5.322-5.322l-1.874-11.867l-1.874,11.867c-0.433,2.74-2.582,4.889-5.322,5.322
			l-11.867,1.874l11.867,1.874C191.314,299.75,193.464,301.899,193.896,304.639z"/>
		<path style="fill:#FFFFFF;" d="M349.941,179.335l1.874,11.867l1.874-11.867c0.433-2.74,2.582-4.89,5.322-5.322l11.867-1.874
			l-11.867-1.874c-2.74-0.433-4.889-2.582-5.322-5.322l-1.874-11.867l-1.874,11.867c-0.433,2.74-2.582,4.889-5.322,5.322
			l-11.867,1.874l11.867,1.874C347.359,174.446,349.508,176.595,349.941,179.335z"/>
		<path style="fill:#FFFFFF;" d="M190.909,168.518l1.651,10.457l1.651-10.457c0.381-2.415,2.275-4.308,4.69-4.69l10.457-1.651
			l-10.457-1.651c-2.415-0.381-4.308-2.275-4.69-4.689l-1.651-10.457l-1.651,10.457c-0.381,2.415-2.275,4.308-4.69,4.689
			l-10.457,1.651l10.457,1.651C188.634,164.21,190.528,166.103,190.909,168.518z"/>
		<path style="fill:#FFFFFF;" d="M48.42,331.287l6.378-1.007l-6.378-1.007c-1.473-0.233-2.628-1.388-2.86-2.86l-1.007-6.378
			l-1.007,6.378c-0.233,1.473-1.388,2.628-2.86,2.86l-6.378,1.007l6.378,1.007c1.473,0.233,2.628,1.388,2.86,2.86l1.007,6.378
			l1.007-6.378C45.792,332.674,46.947,331.519,48.42,331.287z"/>
		<path style="fill:#FFFFFF;" d="M436.12,264.654l1.184,7.497l1.184-7.497c0.273-1.731,1.631-3.089,3.362-3.362l7.497-1.184
			l-7.497-1.184c-1.731-0.273-3.089-1.631-3.362-3.362l-1.184-7.497l-1.184,7.497c-0.273,1.731-1.631,3.089-3.362,3.362
			l-7.497,1.184l7.497,1.184C434.489,261.565,435.846,262.923,436.12,264.654z"/>
	</g>
</g>
</svg>
